# xmcd
#
# Track frame offsets:
#	183
#	11548
#	26960
#	40473
#	53090
#	61163
#	71380
#	82485
#	93960
#	104550
#	115163
#	126520
#
# Disc length: 1829 seconds
#
# Revision: 0
# Processed by: cddbd v1.4PL0 Copyright (c) Steve Scherf et al.
# Submitted via: audiograbber 1.82.02
#
DISCID=a907230c
DTITLE=Fats Domino - Blueberry Hill
DYEAR=1900
DGENRE=Rock and Roll
TTITLE0=I' m Gonna Be A Wheel Someday
TTITLE1=I'm In The Mood For Love
TTITLE2=Jambalaya
TTITLE3=Let The Four Winds Blow
TTITLE4=Whole Lot Of Loving
TTITLE5=My Blue Heaven
TTITLE6=Blue Monday
TTITLE7=You Win Again
TTITLE8=I'm Walkin'
TTITLE9=It's Never Too Late
TTITLE10=Blueberry Hill
TTITLE11=Ain't That A Shame
EXTD=
EXTT0=
EXTT1=
EXTT2=
EXTT3=
EXTT4=
EXTT5=
EXTT6=
EXTT7=
EXTT8=
EXTT9=
EXTT10=
EXTT11=
PLAYORDER=
